<?xml version="1.0" encoding="utf-8" standalone="no"?>
<!DOCTYPE svg PUBLIC "-//W3C//DTD SVG 1.1//EN"
  "http://www.w3.org/Graphics/SVG/1.1/DTD/svg11.dtd">
<svg xmlns:xlink="http://www.w3.org/1999/xlink" width="1382.4pt" height="737.28pt" viewBox="0 0 1382.4 737.28" xmlns="http://www.w3.org/2000/svg" version="1.1">
 <metadata>
  <rdf:RDF xmlns:dc="http://purl.org/dc/elements/1.1/" xmlns:cc="http://creativecommons.org/ns#" xmlns:rdf="http://www.w3.org/1999/02/22-rdf-syntax-ns#">
   <cc:Work>
    <dc:type rdf:resource="http://purl.org/dc/dcmitype/StillImage"/>
    <dc:date>2023-02-28T01:21:57.721083</dc:date>
    <dc:format>image/svg+xml</dc:format>
    <dc:creator>
     <cc:Agent>
      <dc:title>Matplotlib v3.6.2, https://matplotlib.org/</dc:title>
     </cc:Agent>
    </dc:creator>
   </cc:Work>
  </rdf:RDF>
 </metadata>
 <defs>
  <style type="text/css">*{stroke-linejoin: round; stroke-linecap: butt}</style>
 </defs>
 <g id="figure_1">
  <g id="patch_1">
   <path d="M 0 737.28 
L 1382.4 737.28 
L 1382.4 0 
L 0 0 
z
" style="fill: #ffffff"/>
  </g>
  <g id="axes_1">
   <g id="patch_2">
    <path d="M 172.8 656.1792 
L 1244.16 656.1792 
L 1244.16 88.4736 
L 172.8 88.4736 
z
" style="fill: #ffffff"/>
   </g>
   <g id="patch_3">
    <path d="M 221.498182 630.3744 
L 652.477091 630.3744 
L 652.477091 114.2784 
L 221.498182 114.2784 
L 221.498182 630.3744 
z
" clip-path="url(#pcbed4b187b)" style="fill: none; stroke: #000000; stroke-linejoin: miter"/>
   </g>
   <g id="patch_4">
    <path d="M 652.477091 630.3744 
L 1195.461818 630.3744 
L 1195.461818 114.2784 
L 652.477091 114.2784 
L 652.477091 630.3744 
z
" clip-path="url(#pcbed4b187b)" style="fill: none; stroke: #000000; stroke-linejoin: miter"/>
   </g>
   <g id="patch_5">
    <path d="M 221.498182 630.3744 
L 652.477091 630.3744 
L 652.477091 524.886646 
L 221.498182 524.886646 
L 221.498182 630.3744 
z
" clip-path="url(#pcbed4b187b)" style="fill: none; stroke: #000000; stroke-linejoin: miter"/>
   </g>
   <g id="patch_6">
    <path d="M 221.498182 524.886646 
L 652.477091 524.886646 
L 652.477091 114.2784 
L 221.498182 114.2784 
L 221.498182 524.886646 
z
" clip-path="url(#pcbed4b187b)" style="fill: none; stroke: #000000; stroke-linejoin: miter"/>
   </g>
   <g id="patch_7">
    <path d="M 221.498182 630.3744 
L 439.311868 630.3744 
L 439.311868 524.886646 
L 221.498182 524.886646 
L 221.498182 630.3744 
z
" clip-path="url(#pcbed4b187b)" style="fill: none; stroke: #000000; stroke-linejoin: miter"/>
   </g>
   <g id="patch_8">
    <path d="M 439.311868 630.3744 
L 652.477091 630.3744 
L 652.477091 524.886646 
L 439.311868 524.886646 
L 439.311868 630.3744 
z
" clip-path="url(#pcbed4b187b)" style="fill: none; stroke: #000000; stroke-linejoin: miter"/>
   </g>
   <g id="patch_9">
    <path d="M 221.498182 630.3744 
L 439.311868 630.3744 
L 439.311868 597.892834 
L 221.498182 597.892834 
L 221.498182 630.3744 
z
" clip-path="url(#pcbed4b187b)" style="fill: none; stroke: #000000; stroke-linejoin: miter"/>
   </g>
   <g id="patch_10">
    <path d="M 221.498182 597.892834 
L 439.311868 597.892834 
L 439.311868 524.886646 
L 221.498182 524.886646 
L 221.498182 597.892834 
z
" clip-path="url(#pcbed4b187b)" style="fill: none; stroke: #000000; stroke-linejoin: miter"/>
   </g>
   <g id="patch_11">
    <path d="M 221.498182 630.3744 
L 338.373818 630.3744 
L 338.373818 597.892834 
L 221.498182 597.892834 
L 221.498182 630.3744 
z
" clip-path="url(#pcbed4b187b)" style="fill: none; stroke: #000000; stroke-linejoin: miter"/>
   </g>
   <g id="patch_12">
    <path d="M 338.373818 630.3744 
L 439.311868 630.3744 
L 439.311868 597.892834 
L 338.373818 597.892834 
L 338.373818 630.3744 
z
" clip-path="url(#pcbed4b187b)" style="fill: none; stroke: #000000; stroke-linejoin: miter"/>
   </g>
   <g id="patch_13">
    <path d="M 221.498182 630.3744 
L 338.373818 630.3744 
L 338.373818 630.3744 
L 221.498182 630.3744 
L 221.498182 630.3744 
z
" clip-path="url(#pcbed4b187b)" style="fill: none; stroke: #000000; stroke-linejoin: miter"/>
   </g>
   <g id="patch_14">
    <path d="M 221.498182 630.3744 
L 338.373818 630.3744 
L 338.373818 597.892834 
L 221.498182 597.892834 
L 221.498182 630.3744 
z
" clip-path="url(#pcbed4b187b)" style="fill: none; stroke: #000000; stroke-linejoin: miter"/>
   </g>
   <g id="patch_15">
    <path d="M 221.498182 630.3744 
L 299.415273 630.3744 
L 299.415273 630.3744 
L 221.498182 630.3744 
L 221.498182 630.3744 
z
" clip-path="url(#pcbed4b187b)" style="fill: none; stroke: #000000; stroke-linejoin: miter"/>
   </g>
   <g id="patch_16">
    <path d="M 299.415273 630.3744 
L 338.373818 630.3744 
L 338.373818 630.3744 
L 299.415273 630.3744 
L 299.415273 630.3744 
z
" clip-path="url(#pcbed4b187b)" style="fill: none; stroke: #000000; stroke-linejoin: miter"/>
   </g>
   <g id="patch_17">
    <path d="M 221.498182 630.3744 
L 299.415273 630.3744 
L 299.415273 630.3744 
L 221.498182 630.3744 
L 221.498182 630.3744 
z
" clip-path="url(#pcbed4b187b)" style="fill: none; stroke: #000000; stroke-linejoin: miter"/>
   </g>
   <g id="patch_18">
    <path d="M 221.498182 630.3744 
L 299.415273 630.3744 
L 299.415273 630.3744 
L 221.498182 630.3744 
L 221.498182 630.3744 
z
" clip-path="url(#pcbed4b187b)" style="fill: none; stroke: #000000; stroke-linejoin: miter"/>
   </g>
   <g id="patch_19">
    <path d="M 221.498182 630.3744 
L 279.936 630.3744 
L 279.936 630.3744 
L 221.498182 630.3744 
L 221.498182 630.3744 
z
" clip-path="url(#pcbed4b187b)" style="fill: none; stroke: #000000; stroke-linejoin: miter"/>
   </g>
   <g id="patch_20">
    <path d="M 279.936 630.3744 
L 299.415273 630.3744 
L 299.415273 630.3744 
L 279.936 630.3744 
L 279.936 630.3744 
z
" clip-path="url(#pcbed4b187b)" style="fill: none; stroke: #000000; stroke-linejoin: miter"/>
   </g>
   <g id="patch_21">
    <path d="M 338.373818 630.3744 
L 439.311868 630.3744 
L 439.311868 630.3744 
L 338.373818 630.3744 
L 338.373818 630.3744 
z
" clip-path="url(#pcbed4b187b)" style="fill: none; stroke: #000000; stroke-linejoin: miter"/>
   </g>
   <g id="patch_22">
    <path d="M 338.373818 630.3744 
L 439.311868 630.3744 
L 439.311868 597.892834 
L 338.373818 597.892834 
L 338.373818 630.3744 
z
" clip-path="url(#pcbed4b187b)" style="fill: none; stroke: #000000; stroke-linejoin: miter"/>
   </g>
   <g id="patch_23">
    <path d="M 338.373818 630.3744 
L 396.811636 630.3744 
L 396.811636 630.3744 
L 338.373818 630.3744 
L 338.373818 630.3744 
z
" clip-path="url(#pcbed4b187b)" style="fill: none; stroke: #000000; stroke-linejoin: miter"/>
   </g>
   <g id="patch_24">
    <path d="M 396.811636 630.3744 
L 439.311868 630.3744 
L 439.311868 630.3744 
L 396.811636 630.3744 
L 396.811636 630.3744 
z
" clip-path="url(#pcbed4b187b)" style="fill: none; stroke: #000000; stroke-linejoin: miter"/>
   </g>
   <g id="patch_25">
    <path d="M 221.498182 597.892834 
L 305.908364 597.892834 
L 305.908364 524.886646 
L 221.498182 524.886646 
L 221.498182 597.892834 
z
" clip-path="url(#pcbed4b187b)" style="fill: none; stroke: #000000; stroke-linejoin: miter"/>
   </g>
   <g id="patch_26">
    <path d="M 305.908364 597.892834 
L 439.311868 597.892834 
L 439.311868 524.886646 
L 305.908364 524.886646 
L 305.908364 597.892834 
z
" clip-path="url(#pcbed4b187b)" style="fill: none; stroke: #000000; stroke-linejoin: miter"/>
   </g>
   <g id="patch_27">
    <path d="M 221.498182 597.892834 
L 305.908364 597.892834 
L 305.908364 570.824862 
L 221.498182 570.824862 
L 221.498182 597.892834 
z
" clip-path="url(#pcbed4b187b)" style="fill: none; stroke: #000000; stroke-linejoin: miter"/>
   </g>
   <g id="patch_28">
    <path d="M 221.498182 570.824862 
L 305.908364 570.824862 
L 305.908364 524.886646 
L 221.498182 524.886646 
L 221.498182 570.824862 
z
" clip-path="url(#pcbed4b187b)" style="fill: none; stroke: #000000; stroke-linejoin: miter"/>
   </g>
   <g id="patch_29">
    <path d="M 221.498182 597.892834 
L 240.977455 597.892834 
L 240.977455 570.824862 
L 221.498182 570.824862 
L 221.498182 597.892834 
z
" clip-path="url(#pcbed4b187b)" style="fill: none; stroke: #000000; stroke-linejoin: miter"/>
   </g>
   <g id="patch_30">
    <path d="M 240.977455 597.892834 
L 305.908364 597.892834 
L 305.908364 570.824862 
L 240.977455 570.824862 
L 240.977455 597.892834 
z
" clip-path="url(#pcbed4b187b)" style="fill: none; stroke: #000000; stroke-linejoin: miter"/>
   </g>
   <g id="patch_31">
    <path d="M 221.498182 570.824862 
L 279.936 570.824862 
L 279.936 524.886646 
L 221.498182 524.886646 
L 221.498182 570.824862 
z
" clip-path="url(#pcbed4b187b)" style="fill: none; stroke: #000000; stroke-linejoin: miter"/>
   </g>
   <g id="patch_32">
    <path d="M 279.936 570.824862 
L 305.908364 570.824862 
L 305.908364 524.886646 
L 279.936 524.886646 
L 279.936 570.824862 
z
" clip-path="url(#pcbed4b187b)" style="fill: none; stroke: #000000; stroke-linejoin: miter"/>
   </g>
   <g id="patch_33">
    <path d="M 305.908364 597.892834 
L 439.311868 597.892834 
L 439.311868 570.824862 
L 305.908364 570.824862 
L 305.908364 597.892834 
z
" clip-path="url(#pcbed4b187b)" style="fill: none; stroke: #000000; stroke-linejoin: miter"/>
   </g>
   <g id="patch_34">
    <path d="M 305.908364 570.824862 
L 439.311868 570.824862 
L 439.311868 524.886646 
L 305.908364 524.886646 
L 305.908364 570.824862 
z
" clip-path="url(#pcbed4b187b)" style="fill: none; stroke: #000000; stroke-linejoin: miter"/>
   </g>
   <g id="patch_35">
    <path d="M 439.311868 630.3744 
L 652.477091 630.3744 
L 652.477091 597.892834 
L 439.311868 597.892834 
L 439.311868 630.3744 
z
" clip-path="url(#pcbed4b187b)" style="fill: none; stroke: #000000; stroke-linejoin: miter"/>
   </g>
   <g id="patch_36">
    <path d="M 439.311868 597.892834 
L 652.477091 597.892834 
L 652.477091 524.886646 
L 439.311868 524.886646 
L 439.311868 597.892834 
z
" clip-path="url(#pcbed4b187b)" style="fill: none; stroke: #000000; stroke-linejoin: miter"/>
   </g>
   <g id="patch_37">
    <path d="M 439.311868 630.3744 
L 556.541673 630.3744 
L 556.541673 597.892834 
L 439.311868 597.892834 
L 439.311868 630.3744 
z
" clip-path="url(#pcbed4b187b)" style="fill: none; stroke: #000000; stroke-linejoin: miter"/>
   </g>
   <g id="patch_38">
    <path d="M 556.541673 630.3744 
L 652.477091 630.3744 
L 652.477091 597.892834 
L 556.541673 597.892834 
L 556.541673 630.3744 
z
" clip-path="url(#pcbed4b187b)" style="fill: none; stroke: #000000; stroke-linejoin: miter"/>
   </g>
   <g id="patch_39">
    <path d="M 439.311868 630.3744 
L 556.541673 630.3744 
L 556.541673 630.3744 
L 439.311868 630.3744 
L 439.311868 630.3744 
z
" clip-path="url(#pcbed4b187b)" style="fill: none; stroke: #000000; stroke-linejoin: miter"/>
   </g>
   <g id="patch_40">
    <path d="M 439.311868 630.3744 
L 556.541673 630.3744 
L 556.541673 597.892834 
L 439.311868 597.892834 
L 439.311868 630.3744 
z
" clip-path="url(#pcbed4b187b)" style="fill: none; stroke: #000000; stroke-linejoin: miter"/>
   </g>
   <g id="patch_41">
    <path d="M 439.311868 630.3744 
L 474.728727 630.3744 
L 474.728727 630.3744 
L 439.311868 630.3744 
L 439.311868 630.3744 
z
" clip-path="url(#pcbed4b187b)" style="fill: none; stroke: #000000; stroke-linejoin: miter"/>
   </g>
   <g id="patch_42">
    <path d="M 474.728727 630.3744 
L 556.541673 630.3744 
L 556.541673 630.3744 
L 474.728727 630.3744 
L 474.728727 630.3744 
z
" clip-path="url(#pcbed4b187b)" style="fill: none; stroke: #000000; stroke-linejoin: miter"/>
   </g>
   <g id="patch_43">
    <path d="M 556.541673 630.3744 
L 652.477091 630.3744 
L 652.477091 630.3744 
L 556.541673 630.3744 
L 556.541673 630.3744 
z
" clip-path="url(#pcbed4b187b)" style="fill: none; stroke: #000000; stroke-linejoin: miter"/>
   </g>
   <g id="patch_44">
    <path d="M 556.541673 630.3744 
L 652.477091 630.3744 
L 652.477091 597.892834 
L 556.541673 597.892834 
L 556.541673 630.3744 
z
" clip-path="url(#pcbed4b187b)" style="fill: none; stroke: #000000; stroke-linejoin: miter"/>
   </g>
   <g id="patch_45">
    <path d="M 556.541673 630.3744 
L 611.083636 630.3744 
L 611.083636 630.3744 
L 556.541673 630.3744 
L 556.541673 630.3744 
z
" clip-path="url(#pcbed4b187b)" style="fill: none; stroke: #000000; stroke-linejoin: miter"/>
   </g>
   <g id="patch_46">
    <path d="M 611.083636 630.3744 
L 652.477091 630.3744 
L 652.477091 630.3744 
L 611.083636 630.3744 
L 611.083636 630.3744 
z
" clip-path="url(#pcbed4b187b)" style="fill: none; stroke: #000000; stroke-linejoin: miter"/>
   </g>
   <g id="patch_47">
    <path d="M 556.541673 630.3744 
L 611.083636 630.3744 
L 611.083636 630.3744 
L 556.541673 630.3744 
L 556.541673 630.3744 
z
" clip-path="url(#pcbed4b187b)" style="fill: none; stroke: #000000; stroke-linejoin: miter"/>
   </g>
   <g id="patch_48">
    <path d="M 556.541673 630.3744 
L 611.083636 630.3744 
L 611.083636 630.3744 
L 556.541673 630.3744 
L 556.541673 630.3744 
z
" clip-path="url(#pcbed4b187b)" style="fill: none; stroke: #000000; stroke-linejoin: miter"/>
   </g>
   <g id="patch_49">
    <path d="M 556.541673 630.3744 
L 591.604364 630.3744 
L 591.604364 630.3744 
L 556.541673 630.3744 
L 556.541673 630.3744 
z
" clip-path="url(#pcbed4b187b)" style="fill: none; stroke: #000000; stroke-linejoin: miter"/>
   </g>
   <g id="patch_50">
    <path d="M 591.604364 630.3744 
L 611.083636 630.3744 
L 611.083636 630.3744 
L 591.604364 630.3744 
L 591.604364 630.3744 
z
" clip-path="url(#pcbed4b187b)" style="fill: none; stroke: #000000; stroke-linejoin: miter"/>
   </g>
   <g id="patch_51">
    <path d="M 439.311868 597.892834 
L 559.138909 597.892834 
L 559.138909 524.886646 
L 439.311868 524.886646 
L 439.311868 597.892834 
z
" clip-path="url(#pcbed4b187b)" style="fill: none; stroke: #000000; stroke-linejoin: miter"/>
   </g>
   <g id="patch_52">
    <path d="M 559.138909 597.892834 
L 652.477091 597.892834 
L 652.477091 524.886646 
L 559.138909 524.886646 
L 559.138909 597.892834 
z
" clip-path="url(#pcbed4b187b)" style="fill: none; stroke: #000000; stroke-linejoin: miter"/>
   </g>
   <g id="patch_53">
    <path d="M 439.311868 597.892834 
L 559.138909 597.892834 
L 559.138909 570.824862 
L 439.311868 570.824862 
L 439.311868 597.892834 
z
" clip-path="url(#pcbed4b187b)" style="fill: none; stroke: #000000; stroke-linejoin: miter"/>
   </g>
   <g id="patch_54">
    <path d="M 439.311868 570.824862 
L 559.138909 570.824862 
L 559.138909 524.886646 
L 439.311868 524.886646 
L 439.311868 570.824862 
z
" clip-path="url(#pcbed4b187b)" style="fill: none; stroke: #000000; stroke-linejoin: miter"/>
   </g>
   <g id="patch_55">
    <path d="M 559.138909 597.892834 
L 652.477091 597.892834 
L 652.477091 570.824862 
L 559.138909 570.824862 
L 559.138909 597.892834 
z
" clip-path="url(#pcbed4b187b)" style="fill: none; stroke: #000000; stroke-linejoin: miter"/>
   </g>
   <g id="patch_56">
    <path d="M 559.138909 570.824862 
L 652.477091 570.824862 
L 652.477091 524.886646 
L 559.138909 524.886646 
L 559.138909 570.824862 
z
" clip-path="url(#pcbed4b187b)" style="fill: none; stroke: #000000; stroke-linejoin: miter"/>
   </g>
   <g id="patch_57">
    <path d="M 559.138909 597.892834 
L 591.604364 597.892834 
L 591.604364 570.824862 
L 559.138909 570.824862 
L 559.138909 597.892834 
z
" clip-path="url(#pcbed4b187b)" style="fill: none; stroke: #000000; stroke-linejoin: miter"/>
   </g>
   <g id="patch_58">
    <path d="M 591.604364 597.892834 
L 652.477091 597.892834 
L 652.477091 570.824862 
L 591.604364 570.824862 
L 591.604364 597.892834 
z
" clip-path="url(#pcbed4b187b)" style="fill: none; stroke: #000000; stroke-linejoin: miter"/>
   </g>
   <g id="patch_59">
    <path d="M 559.138909 570.824862 
L 611.083636 570.824862 
L 611.083636 524.886646 
L 559.138909 524.886646 
L 559.138909 570.824862 
z
" clip-path="url(#pcbed4b187b)" style="fill: none; stroke: #000000; stroke-linejoin: miter"/>
   </g>
   <g id="patch_60">
    <path d="M 611.083636 570.824862 
L 652.477091 570.824862 
L 652.477091 524.886646 
L 611.083636 524.886646 
L 611.083636 570.824862 
z
" clip-path="url(#pcbed4b187b)" style="fill: none; stroke: #000000; stroke-linejoin: miter"/>
   </g>
   <g id="patch_61">
    <path d="M 221.498182 524.886646 
L 443.26221 524.886646 
L 443.26221 114.2784 
L 221.498182 114.2784 
L 221.498182 524.886646 
z
" clip-path="url(#pcbed4b187b)" style="fill: none; stroke: #000000; stroke-linejoin: miter"/>
   </g>
   <g id="patch_62">
    <path d="M 443.26221 524.886646 
L 652.477091 524.886646 
L 652.477091 114.2784 
L 443.26221 114.2784 
L 443.26221 524.886646 
z
" clip-path="url(#pcbed4b187b)" style="fill: none; stroke: #000000; stroke-linejoin: miter"/>
   </g>
   <g id="patch_63">
    <path d="M 221.498182 524.886646 
L 443.26221 524.886646 
L 443.26221 418.642708 
L 221.498182 418.642708 
L 221.498182 524.886646 
z
" clip-path="url(#pcbed4b187b)" style="fill: none; stroke: #000000; stroke-linejoin: miter"/>
   </g>
   <g id="patch_64">
    <path d="M 221.498182 418.642708 
L 443.26221 418.642708 
L 443.26221 114.2784 
L 221.498182 114.2784 
L 221.498182 418.642708 
z
" clip-path="url(#pcbed4b187b)" style="fill: none; stroke: #000000; stroke-linejoin: miter"/>
   </g>
   <g id="patch_65">
    <path d="M 221.498182 524.886646 
L 289.675636 524.886646 
L 289.675636 418.642708 
L 221.498182 418.642708 
L 221.498182 524.886646 
z
" clip-path="url(#pcbed4b187b)" style="fill: none; stroke: #000000; stroke-linejoin: miter"/>
   </g>
   <g id="patch_66">
    <path d="M 289.675636 524.886646 
L 443.26221 524.886646 
L 443.26221 418.642708 
L 289.675636 418.642708 
L 289.675636 524.886646 
z
" clip-path="url(#pcbed4b187b)" style="fill: none; stroke: #000000; stroke-linejoin: miter"/>
   </g>
   <g id="patch_67">
    <path d="M 221.498182 524.886646 
L 289.675636 524.886646 
L 289.675636 471.575631 
L 221.498182 471.575631 
L 221.498182 524.886646 
z
" clip-path="url(#pcbed4b187b)" style="fill: none; stroke: #000000; stroke-linejoin: miter"/>
   </g>
   <g id="patch_68">
    <path d="M 221.498182 471.575631 
L 289.675636 471.575631 
L 289.675636 418.642708 
L 221.498182 418.642708 
L 221.498182 471.575631 
z
" clip-path="url(#pcbed4b187b)" style="fill: none; stroke: #000000; stroke-linejoin: miter"/>
   </g>
   <g id="patch_69">
    <path d="M 221.498182 524.886646 
L 240.977455 524.886646 
L 240.977455 471.575631 
L 221.498182 471.575631 
L 221.498182 524.886646 
z
" clip-path="url(#pcbed4b187b)" style="fill: none; stroke: #000000; stroke-linejoin: miter"/>
   </g>
   <g id="patch_70">
    <path d="M 240.977455 524.886646 
L 289.675636 524.886646 
L 289.675636 471.575631 
L 240.977455 471.575631 
L 240.977455 524.886646 
z
" clip-path="url(#pcbed4b187b)" style="fill: none; stroke: #000000; stroke-linejoin: miter"/>
   </g>
   <g id="patch_71">
    <path d="M 289.675636 524.886646 
L 443.26221 524.886646 
L 443.26221 451.725785 
L 289.675636 451.725785 
L 289.675636 524.886646 
z
" clip-path="url(#pcbed4b187b)" style="fill: none; stroke: #000000; stroke-linejoin: miter"/>
   </g>
   <g id="patch_72">
    <path d="M 289.675636 451.725785 
L 443.26221 451.725785 
L 443.26221 418.642708 
L 289.675636 418.642708 
L 289.675636 451.725785 
z
" clip-path="url(#pcbed4b187b)" style="fill: none; stroke: #000000; stroke-linejoin: miter"/>
   </g>
   <g id="patch_73">
    <path d="M 221.498182 418.642708 
L 357.853091 418.642708 
L 357.853091 114.2784 
L 221.498182 114.2784 
L 221.498182 418.642708 
z
" clip-path="url(#pcbed4b187b)" style="fill: none; stroke: #000000; stroke-linejoin: miter"/>
   </g>
   <g id="patch_74">
    <path d="M 357.853091 418.642708 
L 443.26221 418.642708 
L 443.26221 114.2784 
L 357.853091 114.2784 
L 357.853091 418.642708 
z
" clip-path="url(#pcbed4b187b)" style="fill: none; stroke: #000000; stroke-linejoin: miter"/>
   </g>
   <g id="patch_75">
    <path d="M 443.26221 524.886646 
L 652.477091 524.886646 
L 652.477091 386.504862 
L 443.26221 386.504862 
L 443.26221 524.886646 
z
" clip-path="url(#pcbed4b187b)" style="fill: none; stroke: #000000; stroke-linejoin: miter"/>
   </g>
   <g id="patch_76">
    <path d="M 443.26221 386.504862 
L 652.477091 386.504862 
L 652.477091 114.2784 
L 443.26221 114.2784 
L 443.26221 386.504862 
z
" clip-path="url(#pcbed4b187b)" style="fill: none; stroke: #000000; stroke-linejoin: miter"/>
   </g>
   <g id="patch_77">
    <path d="M 443.26221 524.886646 
L 556.541673 524.886646 
L 556.541673 386.504862 
L 443.26221 386.504862 
L 443.26221 524.886646 
z
" clip-path="url(#pcbed4b187b)" style="fill: none; stroke: #000000; stroke-linejoin: miter"/>
   </g>
   <g id="patch_78">
    <path d="M 556.541673 524.886646 
L 652.477091 524.886646 
L 652.477091 386.504862 
L 556.541673 386.504862 
L 556.541673 524.886646 
z
" clip-path="url(#pcbed4b187b)" style="fill: none; stroke: #000000; stroke-linejoin: miter"/>
   </g>
   <g id="patch_79">
    <path d="M 443.26221 524.886646 
L 556.541673 524.886646 
L 556.541673 471.575631 
L 443.26221 471.575631 
L 443.26221 524.886646 
z
" clip-path="url(#pcbed4b187b)" style="fill: none; stroke: #000000; stroke-linejoin: miter"/>
   </g>
   <g id="patch_80">
    <path d="M 443.26221 471.575631 
L 556.541673 471.575631 
L 556.541673 386.504862 
L 443.26221 386.504862 
L 443.26221 471.575631 
z
" clip-path="url(#pcbed4b187b)" style="fill: none; stroke: #000000; stroke-linejoin: miter"/>
   </g>
   <g id="patch_81">
    <path d="M 443.26221 524.886646 
L 533.166545 524.886646 
L 533.166545 471.575631 
L 443.26221 471.575631 
L 443.26221 524.886646 
z
" clip-path="url(#pcbed4b187b)" style="fill: none; stroke: #000000; stroke-linejoin: miter"/>
   </g>
   <g id="patch_82">
    <path d="M 533.166545 524.886646 
L 556.541673 524.886646 
L 556.541673 471.575631 
L 533.166545 471.575631 
L 533.166545 524.886646 
z
" clip-path="url(#pcbed4b187b)" style="fill: none; stroke: #000000; stroke-linejoin: miter"/>
   </g>
   <g id="patch_83">
    <path d="M 443.26221 524.886646 
L 533.166545 524.886646 
L 533.166545 491.425477 
L 443.26221 491.425477 
L 443.26221 524.886646 
z
" clip-path="url(#pcbed4b187b)" style="fill: none; stroke: #000000; stroke-linejoin: miter"/>
   </g>
   <g id="patch_84">
    <path d="M 443.26221 491.425477 
L 533.166545 491.425477 
L 533.166545 471.575631 
L 443.26221 471.575631 
L 443.26221 491.425477 
z
" clip-path="url(#pcbed4b187b)" style="fill: none; stroke: #000000; stroke-linejoin: miter"/>
   </g>
   <g id="patch_85">
    <path d="M 556.541673 524.886646 
L 652.477091 524.886646 
L 652.477091 431.875938 
L 556.541673 431.875938 
L 556.541673 524.886646 
z
" clip-path="url(#pcbed4b187b)" style="fill: none; stroke: #000000; stroke-linejoin: miter"/>
   </g>
   <g id="patch_86">
    <path d="M 556.541673 431.875938 
L 652.477091 431.875938 
L 652.477091 386.504862 
L 556.541673 386.504862 
L 556.541673 431.875938 
z
" clip-path="url(#pcbed4b187b)" style="fill: none; stroke: #000000; stroke-linejoin: miter"/>
   </g>
   <g id="patch_87">
    <path d="M 556.541673 524.886646 
L 591.604364 524.886646 
L 591.604364 431.875938 
L 556.541673 431.875938 
L 556.541673 524.886646 
z
" clip-path="url(#pcbed4b187b)" style="fill: none; stroke: #000000; stroke-linejoin: miter"/>
   </g>
   <g id="patch_88">
    <path d="M 591.604364 524.886646 
L 652.477091 524.886646 
L 652.477091 431.875938 
L 591.604364 431.875938 
L 591.604364 524.886646 
z
" clip-path="url(#pcbed4b187b)" style="fill: none; stroke: #000000; stroke-linejoin: miter"/>
   </g>
   <g id="patch_89">
    <path d="M 443.26221 386.504862 
L 552.645818 386.504862 
L 552.645818 114.2784 
L 443.26221 114.2784 
L 443.26221 386.504862 
z
" clip-path="url(#pcbed4b187b)" style="fill: none; stroke: #000000; stroke-linejoin: miter"/>
   </g>
   <g id="patch_90">
    <path d="M 552.645818 386.504862 
L 652.477091 386.504862 
L 652.477091 114.2784 
L 552.645818 114.2784 
L 552.645818 386.504862 
z
" clip-path="url(#pcbed4b187b)" style="fill: none; stroke: #000000; stroke-linejoin: miter"/>
   </g>
   <g id="patch_91">
    <path d="M 652.477091 630.3744 
L 1195.461818 630.3744 
L 1195.461818 515.382188 
L 652.477091 515.382188 
L 652.477091 630.3744 
z
" clip-path="url(#pcbed4b187b)" style="fill: none; stroke: #000000; stroke-linejoin: miter"/>
   </g>
   <g id="patch_92">
    <path d="M 652.477091 515.382188 
L 1195.461818 515.382188 
L 1195.461818 114.2784 
L 652.477091 114.2784 
L 652.477091 515.382188 
z
" clip-path="url(#pcbed4b187b)" style="fill: none; stroke: #000000; stroke-linejoin: miter"/>
   </g>
   <g id="patch_93">
    <path d="M 652.477091 630.3744 
L 910.577455 630.3744 
L 910.577455 515.382188 
L 652.477091 515.382188 
L 652.477091 630.3744 
z
" clip-path="url(#pcbed4b187b)" style="fill: none; stroke: #000000; stroke-linejoin: miter"/>
   </g>
   <g id="patch_94">
    <path d="M 910.577455 630.3744 
L 1195.461818 630.3744 
L 1195.461818 515.382188 
L 910.577455 515.382188 
L 910.577455 630.3744 
z
" clip-path="url(#pcbed4b187b)" style="fill: none; stroke: #000000; stroke-linejoin: miter"/>
   </g>
   <g id="patch_95">
    <path d="M 652.477091 630.3744 
L 910.577455 630.3744 
L 910.577455 607.688862 
L 652.477091 607.688862 
L 652.477091 630.3744 
z
" clip-path="url(#pcbed4b187b)" style="fill: none; stroke: #000000; stroke-linejoin: miter"/>
   </g>
   <g id="patch_96">
    <path d="M 652.477091 607.688862 
L 910.577455 607.688862 
L 910.577455 515.382188 
L 652.477091 515.382188 
L 652.477091 607.688862 
z
" clip-path="url(#pcbed4b187b)" style="fill: none; stroke: #000000; stroke-linejoin: miter"/>
   </g>
   <g id="patch_97">
    <path d="M 652.477091 630.3744 
L 786.397091 630.3744 
L 786.397091 607.688862 
L 652.477091 607.688862 
L 652.477091 630.3744 
z
" clip-path="url(#pcbed4b187b)" style="fill: none; stroke: #000000; stroke-linejoin: miter"/>
   </g>
   <g id="patch_98">
    <path d="M 786.397091 630.3744 
L 910.577455 630.3744 
L 910.577455 607.688862 
L 786.397091 607.688862 
L 786.397091 630.3744 
z
" clip-path="url(#pcbed4b187b)" style="fill: none; stroke: #000000; stroke-linejoin: miter"/>
   </g>
   <g id="patch_99">
    <path d="M 652.477091 630.3744 
L 786.397091 630.3744 
L 786.397091 630.3744 
L 652.477091 630.3744 
L 652.477091 630.3744 
z
" clip-path="url(#pcbed4b187b)" style="fill: none; stroke: #000000; stroke-linejoin: miter"/>
   </g>
   <g id="patch_100">
    <path d="M 652.477091 630.3744 
L 786.397091 630.3744 
L 786.397091 607.688862 
L 652.477091 607.688862 
L 652.477091 630.3744 
z
" clip-path="url(#pcbed4b187b)" style="fill: none; stroke: #000000; stroke-linejoin: miter"/>
   </g>
   <g id="patch_101">
    <path d="M 652.477091 630.3744 
L 727.959273 630.3744 
L 727.959273 630.3744 
L 652.477091 630.3744 
L 652.477091 630.3744 
z
" clip-path="url(#pcbed4b187b)" style="fill: none; stroke: #000000; stroke-linejoin: miter"/>
   </g>
   <g id="patch_102">
    <path d="M 727.959273 630.3744 
L 786.397091 630.3744 
L 786.397091 630.3744 
L 727.959273 630.3744 
L 727.959273 630.3744 
z
" clip-path="url(#pcbed4b187b)" style="fill: none; stroke: #000000; stroke-linejoin: miter"/>
   </g>
   <g id="patch_103">
    <path d="M 786.397091 630.3744 
L 910.577455 630.3744 
L 910.577455 630.3744 
L 786.397091 630.3744 
L 786.397091 630.3744 
z
" clip-path="url(#pcbed4b187b)" style="fill: none; stroke: #000000; stroke-linejoin: miter"/>
   </g>
   <g id="patch_104">
    <path d="M 786.397091 630.3744 
L 910.577455 630.3744 
L 910.577455 607.688862 
L 786.397091 607.688862 
L 786.397091 630.3744 
z
" clip-path="url(#pcbed4b187b)" style="fill: none; stroke: #000000; stroke-linejoin: miter"/>
   </g>
   <g id="patch_105">
    <path d="M 786.397091 630.3744 
L 844.834909 630.3744 
L 844.834909 630.3744 
L 786.397091 630.3744 
L 786.397091 630.3744 
z
" clip-path="url(#pcbed4b187b)" style="fill: none; stroke: #000000; stroke-linejoin: miter"/>
   </g>
   <g id="patch_106">
    <path d="M 844.834909 630.3744 
L 910.577455 630.3744 
L 910.577455 630.3744 
L 844.834909 630.3744 
L 844.834909 630.3744 
z
" clip-path="url(#pcbed4b187b)" style="fill: none; stroke: #000000; stroke-linejoin: miter"/>
   </g>
   <g id="patch_107">
    <path d="M 652.477091 607.688862 
L 740.945455 607.688862 
L 740.945455 515.382188 
L 652.477091 515.382188 
L 652.477091 607.688862 
z
" clip-path="url(#pcbed4b187b)" style="fill: none; stroke: #000000; stroke-linejoin: miter"/>
   </g>
   <g id="patch_108">
    <path d="M 740.945455 607.688862 
L 910.577455 607.688862 
L 910.577455 515.382188 
L 740.945455 515.382188 
L 740.945455 607.688862 
z
" clip-path="url(#pcbed4b187b)" style="fill: none; stroke: #000000; stroke-linejoin: miter"/>
   </g>
   <g id="patch_109">
    <path d="M 652.477091 607.688862 
L 740.945455 607.688862 
L 740.945455 570.824862 
L 652.477091 570.824862 
L 652.477091 607.688862 
z
" clip-path="url(#pcbed4b187b)" style="fill: none; stroke: #000000; stroke-linejoin: miter"/>
   </g>
   <g id="patch_110">
    <path d="M 652.477091 570.824862 
L 740.945455 570.824862 
L 740.945455 515.382188 
L 652.477091 515.382188 
L 652.477091 570.824862 
z
" clip-path="url(#pcbed4b187b)" style="fill: none; stroke: #000000; stroke-linejoin: miter"/>
   </g>
   <g id="patch_111">
    <path d="M 910.577455 630.3744 
L 1195.461818 630.3744 
L 1195.461818 603.907938 
L 910.577455 603.907938 
L 910.577455 630.3744 
z
" clip-path="url(#pcbed4b187b)" style="fill: none; stroke: #000000; stroke-linejoin: miter"/>
   </g>
   <g id="patch_112">
    <path d="M 910.577455 603.907938 
L 1195.461818 603.907938 
L 1195.461818 515.382188 
L 910.577455 515.382188 
L 910.577455 603.907938 
z
" clip-path="url(#pcbed4b187b)" style="fill: none; stroke: #000000; stroke-linejoin: miter"/>
   </g>
   <g id="patch_113">
    <path d="M 910.577455 630.3744 
L 1039.627636 630.3744 
L 1039.627636 603.907938 
L 910.577455 603.907938 
L 910.577455 630.3744 
z
" clip-path="url(#pcbed4b187b)" style="fill: none; stroke: #000000; stroke-linejoin: miter"/>
   </g>
   <g id="patch_114">
    <path d="M 1039.627636 630.3744 
L 1195.461818 630.3744 
L 1195.461818 603.907938 
L 1039.627636 603.907938 
L 1039.627636 630.3744 
z
" clip-path="url(#pcbed4b187b)" style="fill: none; stroke: #000000; stroke-linejoin: miter"/>
   </g>
   <g id="patch_115">
    <path d="M 910.577455 630.3744 
L 1039.627636 630.3744 
L 1039.627636 630.3744 
L 910.577455 630.3744 
L 910.577455 630.3744 
z
" clip-path="url(#pcbed4b187b)" style="fill: none; stroke: #000000; stroke-linejoin: miter"/>
   </g>
   <g id="patch_116">
    <path d="M 910.577455 630.3744 
L 1039.627636 630.3744 
L 1039.627636 603.907938 
L 910.577455 603.907938 
L 910.577455 630.3744 
z
" clip-path="url(#pcbed4b187b)" style="fill: none; stroke: #000000; stroke-linejoin: miter"/>
   </g>
   <g id="patch_117">
    <path d="M 910.577455 630.3744 
L 974.696727 630.3744 
L 974.696727 630.3744 
L 910.577455 630.3744 
L 910.577455 630.3744 
z
" clip-path="url(#pcbed4b187b)" style="fill: none; stroke: #000000; stroke-linejoin: miter"/>
   </g>
   <g id="patch_118">
    <path d="M 974.696727 630.3744 
L 1039.627636 630.3744 
L 1039.627636 630.3744 
L 974.696727 630.3744 
L 974.696727 630.3744 
z
" clip-path="url(#pcbed4b187b)" style="fill: none; stroke: #000000; stroke-linejoin: miter"/>
   </g>
   <g id="patch_119">
    <path d="M 910.577455 630.3744 
L 974.696727 630.3744 
L 974.696727 630.3744 
L 910.577455 630.3744 
L 910.577455 630.3744 
z
" clip-path="url(#pcbed4b187b)" style="fill: none; stroke: #000000; stroke-linejoin: miter"/>
   </g>
   <g id="patch_120">
    <path d="M 910.577455 630.3744 
L 974.696727 630.3744 
L 974.696727 630.3744 
L 910.577455 630.3744 
L 910.577455 630.3744 
z
" clip-path="url(#pcbed4b187b)" style="fill: none; stroke: #000000; stroke-linejoin: miter"/>
   </g>
   <g id="patch_121">
    <path d="M 910.577455 630.3744 
L 942.231273 630.3744 
L 942.231273 630.3744 
L 910.577455 630.3744 
L 910.577455 630.3744 
z
" clip-path="url(#pcbed4b187b)" style="fill: none; stroke: #000000; stroke-linejoin: miter"/>
   </g>
   <g id="patch_122">
    <path d="M 942.231273 630.3744 
L 974.696727 630.3744 
L 974.696727 630.3744 
L 942.231273 630.3744 
L 942.231273 630.3744 
z
" clip-path="url(#pcbed4b187b)" style="fill: none; stroke: #000000; stroke-linejoin: miter"/>
   </g>
   <g id="patch_123">
    <path d="M 1039.627636 630.3744 
L 1195.461818 630.3744 
L 1195.461818 630.3744 
L 1039.627636 630.3744 
L 1039.627636 630.3744 
z
" clip-path="url(#pcbed4b187b)" style="fill: none; stroke: #000000; stroke-linejoin: miter"/>
   </g>
   <g id="patch_124">
    <path d="M 1039.627636 630.3744 
L 1195.461818 630.3744 
L 1195.461818 603.907938 
L 1039.627636 603.907938 
L 1039.627636 630.3744 
z
" clip-path="url(#pcbed4b187b)" style="fill: none; stroke: #000000; stroke-linejoin: miter"/>
   </g>
   <g id="patch_125">
    <path d="M 1039.627636 630.3744 
L 1137.024 630.3744 
L 1137.024 630.3744 
L 1039.627636 630.3744 
L 1039.627636 630.3744 
z
" clip-path="url(#pcbed4b187b)" style="fill: none; stroke: #000000; stroke-linejoin: miter"/>
   </g>
   <g id="patch_126">
    <path d="M 1137.024 630.3744 
L 1195.461818 630.3744 
L 1195.461818 630.3744 
L 1137.024 630.3744 
L 1137.024 630.3744 
z
" clip-path="url(#pcbed4b187b)" style="fill: none; stroke: #000000; stroke-linejoin: miter"/>
   </g>
   <g id="patch_127">
    <path d="M 910.577455 603.907938 
L 1000.669091 603.907938 
L 1000.669091 515.382188 
L 910.577455 515.382188 
L 910.577455 603.907938 
z
" clip-path="url(#pcbed4b187b)" style="fill: none; stroke: #000000; stroke-linejoin: miter"/>
   </g>
   <g id="patch_128">
    <path d="M 1000.669091 603.907938 
L 1195.461818 603.907938 
L 1195.461818 515.382188 
L 1000.669091 515.382188 
L 1000.669091 603.907938 
z
" clip-path="url(#pcbed4b187b)" style="fill: none; stroke: #000000; stroke-linejoin: miter"/>
   </g>
   <g id="patch_129">
    <path d="M 910.577455 603.907938 
L 1000.669091 603.907938 
L 1000.669091 570.824862 
L 910.577455 570.824862 
L 910.577455 603.907938 
z
" clip-path="url(#pcbed4b187b)" style="fill: none; stroke: #000000; stroke-linejoin: miter"/>
   </g>
   <g id="patch_130">
    <path d="M 910.577455 570.824862 
L 1000.669091 570.824862 
L 1000.669091 515.382188 
L 910.577455 515.382188 
L 910.577455 570.824862 
z
" clip-path="url(#pcbed4b187b)" style="fill: none; stroke: #000000; stroke-linejoin: miter"/>
   </g>
   <g id="patch_131">
    <path d="M 1000.669091 603.907938 
L 1195.461818 603.907938 
L 1195.461818 570.824862 
L 1000.669091 570.824862 
L 1000.669091 603.907938 
z
" clip-path="url(#pcbed4b187b)" style="fill: none; stroke: #000000; stroke-linejoin: miter"/>
   </g>
   <g id="patch_132">
    <path d="M 1000.669091 570.824862 
L 1195.461818 570.824862 
L 1195.461818 515.382188 
L 1000.669091 515.382188 
L 1000.669091 570.824862 
z
" clip-path="url(#pcbed4b187b)" style="fill: none; stroke: #000000; stroke-linejoin: miter"/>
   </g>
   <g id="patch_133">
    <path d="M 652.477091 515.382188 
L 904.771133 515.382188 
L 904.771133 114.2784 
L 652.477091 114.2784 
L 652.477091 515.382188 
z
" clip-path="url(#pcbed4b187b)" style="fill: none; stroke: #000000; stroke-linejoin: miter"/>
   </g>
   <g id="patch_134">
    <path d="M 904.771133 515.382188 
L 1195.461818 515.382188 
L 1195.461818 114.2784 
L 904.771133 114.2784 
L 904.771133 515.382188 
z
" clip-path="url(#pcbed4b187b)" style="fill: none; stroke: #000000; stroke-linejoin: miter"/>
   </g>
   <g id="patch_135">
    <path d="M 652.477091 515.382188 
L 904.771133 515.382188 
L 904.771133 385.559631 
L 652.477091 385.559631 
L 652.477091 515.382188 
z
" clip-path="url(#pcbed4b187b)" style="fill: none; stroke: #000000; stroke-linejoin: miter"/>
   </g>
   <g id="patch_136">
    <path d="M 652.477091 385.559631 
L 904.771133 385.559631 
L 904.771133 114.2784 
L 652.477091 114.2784 
L 652.477091 385.559631 
z
" clip-path="url(#pcbed4b187b)" style="fill: none; stroke: #000000; stroke-linejoin: miter"/>
   </g>
   <g id="patch_137">
    <path d="M 652.477091 515.382188 
L 796.136727 515.382188 
L 796.136727 385.559631 
L 652.477091 385.559631 
L 652.477091 515.382188 
z
" clip-path="url(#pcbed4b187b)" style="fill: none; stroke: #000000; stroke-linejoin: miter"/>
   </g>
   <g id="patch_138">
    <path d="M 796.136727 515.382188 
L 904.771133 515.382188 
L 904.771133 385.559631 
L 796.136727 385.559631 
L 796.136727 515.382188 
z
" clip-path="url(#pcbed4b187b)" style="fill: none; stroke: #000000; stroke-linejoin: miter"/>
   </g>
   <g id="patch_139">
    <path d="M 796.136727 515.382188 
L 904.771133 515.382188 
L 904.771133 458.3424 
L 796.136727 458.3424 
L 796.136727 515.382188 
z
" clip-path="url(#pcbed4b187b)" style="fill: none; stroke: #000000; stroke-linejoin: miter"/>
   </g>
   <g id="patch_140">
    <path d="M 796.136727 458.3424 
L 904.771133 458.3424 
L 904.771133 385.559631 
L 796.136727 385.559631 
L 796.136727 458.3424 
z
" clip-path="url(#pcbed4b187b)" style="fill: none; stroke: #000000; stroke-linejoin: miter"/>
   </g>
   <g id="patch_141">
    <path d="M 796.136727 458.3424 
L 844.834909 458.3424 
L 844.834909 385.559631 
L 796.136727 385.559631 
L 796.136727 458.3424 
z
" clip-path="url(#pcbed4b187b)" style="fill: none; stroke: #000000; stroke-linejoin: miter"/>
   </g>
   <g id="patch_142">
    <path d="M 844.834909 458.3424 
L 904.771133 458.3424 
L 904.771133 385.559631 
L 844.834909 385.559631 
L 844.834909 458.3424 
z
" clip-path="url(#pcbed4b187b)" style="fill: none; stroke: #000000; stroke-linejoin: miter"/>
   </g>
   <g id="patch_143">
    <path d="M 652.477091 385.559631 
L 727.959273 385.559631 
L 727.959273 114.2784 
L 652.477091 114.2784 
L 652.477091 385.559631 
z
" clip-path="url(#pcbed4b187b)" style="fill: none; stroke: #000000; stroke-linejoin: miter"/>
   </g>
   <g id="patch_144">
    <path d="M 727.959273 385.559631 
L 904.771133 385.559631 
L 904.771133 114.2784 
L 727.959273 114.2784 
L 727.959273 385.559631 
z
" clip-path="url(#pcbed4b187b)" style="fill: none; stroke: #000000; stroke-linejoin: miter"/>
   </g>
   <g id="patch_145">
    <path d="M 904.771133 515.382188 
L 1195.461818 515.382188 
L 1195.461818 420.533169 
L 904.771133 420.533169 
L 904.771133 515.382188 
z
" clip-path="url(#pcbed4b187b)" style="fill: none; stroke: #000000; stroke-linejoin: miter"/>
   </g>
   <g id="patch_146">
    <path d="M 904.771133 420.533169 
L 1195.461818 420.533169 
L 1195.461818 114.2784 
L 904.771133 114.2784 
L 904.771133 420.533169 
z
" clip-path="url(#pcbed4b187b)" style="fill: none; stroke: #000000; stroke-linejoin: miter"/>
   </g>
   <g id="patch_147">
    <path d="M 904.771133 515.382188 
L 1013.655273 515.382188 
L 1013.655273 420.533169 
L 904.771133 420.533169 
L 904.771133 515.382188 
z
" clip-path="url(#pcbed4b187b)" style="fill: none; stroke: #000000; stroke-linejoin: miter"/>
   </g>
   <g id="patch_148">
    <path d="M 1013.655273 515.382188 
L 1195.461818 515.382188 
L 1195.461818 420.533169 
L 1013.655273 420.533169 
L 1013.655273 515.382188 
z
" clip-path="url(#pcbed4b187b)" style="fill: none; stroke: #000000; stroke-linejoin: miter"/>
   </g>
   <g id="patch_149">
    <path d="M 1013.655273 515.382188 
L 1195.461818 515.382188 
L 1195.461818 491.425477 
L 1013.655273 491.425477 
L 1013.655273 515.382188 
z
" clip-path="url(#pcbed4b187b)" style="fill: none; stroke: #000000; stroke-linejoin: miter"/>
   </g>
   <g id="patch_150">
    <path d="M 1013.655273 491.425477 
L 1195.461818 491.425477 
L 1195.461818 420.533169 
L 1013.655273 420.533169 
L 1013.655273 491.425477 
z
" clip-path="url(#pcbed4b187b)" style="fill: none; stroke: #000000; stroke-linejoin: miter"/>
   </g>
   <g id="patch_151">
    <path d="M 904.771133 420.533169 
L 1020.148364 420.533169 
L 1020.148364 114.2784 
L 904.771133 114.2784 
L 904.771133 420.533169 
z
" clip-path="url(#pcbed4b187b)" style="fill: none; stroke: #000000; stroke-linejoin: miter"/>
   </g>
   <g id="patch_152">
    <path d="M 1020.148364 420.533169 
L 1195.461818 420.533169 
L 1195.461818 114.2784 
L 1020.148364 114.2784 
L 1020.148364 420.533169 
z
" clip-path="url(#pcbed4b187b)" style="fill: none; stroke: #000000; stroke-linejoin: miter"/>
   </g>
   <g id="patch_153">
    <path d="M 1020.148364 420.533169 
L 1195.461818 420.533169 
L 1195.461818 378.943015 
L 1020.148364 378.943015 
L 1020.148364 420.533169 
z
" clip-path="url(#pcbed4b187b)" style="fill: none; stroke: #000000; stroke-linejoin: miter"/>
   </g>
   <g id="patch_154">
    <path d="M 1020.148364 378.943015 
L 1195.461818 378.943015 
L 1195.461818 114.2784 
L 1020.148364 114.2784 
L 1020.148364 378.943015 
z
" clip-path="url(#pcbed4b187b)" style="fill: none; stroke: #000000; stroke-linejoin: miter"/>
   </g>
   <g id="patch_155">
    <path d="M 1020.148364 420.533169 
L 1059.106909 420.533169 
L 1059.106909 378.943015 
L 1020.148364 378.943015 
L 1020.148364 420.533169 
z
" clip-path="url(#pcbed4b187b)" style="fill: none; stroke: #000000; stroke-linejoin: miter"/>
   </g>
   <g id="patch_156">
    <path d="M 1059.106909 420.533169 
L 1195.461818 420.533169 
L 1195.461818 378.943015 
L 1059.106909 378.943015 
L 1059.106909 420.533169 
z
" clip-path="url(#pcbed4b187b)" style="fill: none; stroke: #000000; stroke-linejoin: miter"/>
   </g>
   <g id="matplotlib.axis_1">
    <g id="xtick_1">
     <g id="line2d_1">
      <defs>
       <path id="m53a1f5283a" d="M 0 0 
L 0 3.5 
" style="stroke: #000000; stroke-width: 0.8"/>
      </defs>
      <g>
       <use xlink:href="#m53a1f5283a" x="221.498182" y="656.1792" style="stroke: #000000; stroke-width: 0.8"/>
      </g>
     </g>
     <g id="text_1">
      <!-- 0 -->
      <g transform="translate(218.316932 670.777637) scale(0.1 -0.1)">
       <defs>
        <path id="DejaVuSans-30" d="M 2034 4250 
Q 1547 4250 1301 3770 
Q 1056 3291 1056 2328 
Q 1056 1369 1301 889 
Q 1547 409 2034 409 
Q 2525 409 2770 889 
Q 3016 1369 3016 2328 
Q 3016 3291 2770 3770 
Q 2525 4250 2034 4250 
z
M 2034 4750 
Q 2819 4750 3233 4129 
Q 3647 3509 3647 2328 
Q 3647 1150 3233 529 
Q 2819 -91 2034 -91 
Q 1250 -91 836 529 
Q 422 1150 422 2328 
Q 422 3509 836 4129 
Q 1250 4750 2034 4750 
z
" transform="scale(0.015625)"/>
       </defs>
       <use xlink:href="#DejaVuSans-30"/>
      </g>
     </g>
    </g>
    <g id="xtick_2">
     <g id="line2d_2">
      <g>
       <use xlink:href="#m53a1f5283a" x="416.290909" y="656.1792" style="stroke: #000000; stroke-width: 0.8"/>
      </g>
     </g>
     <g id="text_2">
      <!-- 5 -->
      <g transform="translate(413.109659 670.777637) scale(0.1 -0.1)">
       <defs>
        <path id="DejaVuSans-35" d="M 691 4666 
L 3169 4666 
L 3169 4134 
L 1269 4134 
L 1269 2991 
Q 1406 3038 1543 3061 
Q 1681 3084 1819 3084 
Q 2600 3084 3056 2656 
Q 3513 2228 3513 1497 
Q 3513 744 3044 326 
Q 2575 -91 1722 -91 
Q 1428 -91 1123 -41 
Q 819 9 494 109 
L 494 744 
Q 775 591 1075 516 
Q 1375 441 1709 441 
Q 2250 441 2565 725 
Q 2881 1009 2881 1497 
Q 2881 1984 2565 2268 
Q 2250 2553 1709 2553 
Q 1456 2553 1204 2497 
Q 953 2441 691 2322 
L 691 4666 
z
" transform="scale(0.015625)"/>
       </defs>
       <use xlink:href="#DejaVuSans-35"/>
      </g>
     </g>
    </g>
    <g id="xtick_3">
     <g id="line2d_3">
      <g>
       <use xlink:href="#m53a1f5283a" x="611.083636" y="656.1792" style="stroke: #000000; stroke-width: 0.8"/>
      </g>
     </g>
     <g id="text_3">
      <!-- 10 -->
      <g transform="translate(604.721136 670.777637) scale(0.1 -0.1)">
       <defs>
        <path id="DejaVuSans-31" d="M 794 531 
L 1825 531 
L 1825 4091 
L 703 3866 
L 703 4441 
L 1819 4666 
L 2450 4666 
L 2450 531 
L 3481 531 
L 3481 0 
L 794 0 
L 794 531 
z
" transform="scale(0.015625)"/>
       </defs>
       <use xlink:href="#DejaVuSans-31"/>
       <use xlink:href="#DejaVuSans-30" x="63.623047"/>
      </g>
     </g>
    </g>
    <g id="xtick_4">
     <g id="line2d_4">
      <g>
       <use xlink:href="#m53a1f5283a" x="805.876364" y="656.1792" style="stroke: #000000; stroke-width: 0.8"/>
      </g>
     </g>
     <g id="text_4">
      <!-- 15 -->
      <g transform="translate(799.513864 670.777637) scale(0.1 -0.1)">
       <use xlink:href="#DejaVuSans-31"/>
       <use xlink:href="#DejaVuSans-35" x="63.623047"/>
      </g>
     </g>
    </g>
    <g id="xtick_5">
     <g id="line2d_5">
      <g>
       <use xlink:href="#m53a1f5283a" x="1000.669091" y="656.1792" style="stroke: #000000; stroke-width: 0.8"/>
      </g>
     </g>
     <g id="text_5">
      <!-- 20 -->
      <g transform="translate(994.306591 670.777637) scale(0.1 -0.1)">
       <defs>
        <path id="DejaVuSans-32" d="M 1228 531 
L 3431 531 
L 3431 0 
L 469 0 
L 469 531 
Q 828 903 1448 1529 
Q 2069 2156 2228 2338 
Q 2531 2678 2651 2914 
Q 2772 3150 2772 3378 
Q 2772 3750 2511 3984 
Q 2250 4219 1831 4219 
Q 1534 4219 1204 4116 
Q 875 4013 500 3803 
L 500 4441 
Q 881 4594 1212 4672 
Q 1544 4750 1819 4750 
Q 2544 4750 2975 4387 
Q 3406 4025 3406 3419 
Q 3406 3131 3298 2873 
Q 3191 2616 2906 2266 
Q 2828 2175 2409 1742 
Q 1991 1309 1228 531 
z
" transform="scale(0.015625)"/>
       </defs>
       <use xlink:href="#DejaVuSans-32"/>
       <use xlink:href="#DejaVuSans-30" x="63.623047"/>
      </g>
     </g>
    </g>
    <g id="xtick_6">
     <g id="line2d_6">
      <g>
       <use xlink:href="#m53a1f5283a" x="1195.461818" y="656.1792" style="stroke: #000000; stroke-width: 0.8"/>
      </g>
     </g>
     <g id="text_6">
      <!-- 25 -->
      <g transform="translate(1189.099318 670.777637) scale(0.1 -0.1)">
       <use xlink:href="#DejaVuSans-32"/>
       <use xlink:href="#DejaVuSans-35" x="63.623047"/>
      </g>
     </g>
    </g>
   </g>
   <g id="matplotlib.axis_2">
    <g id="ytick_1">
     <g id="line2d_7">
      <defs>
       <path id="m2e0dbb127c" d="M 0 0 
L -3.5 0 
" style="stroke: #000000; stroke-width: 0.8"/>
      </defs>
      <g>
       <use xlink:href="#m2e0dbb127c" x="172.8" y="630.3744" style="stroke: #000000; stroke-width: 0.8"/>
      </g>
     </g>
     <g id="text_7">
      <!-- 0 -->
      <g transform="translate(159.4375 634.173619) scale(0.1 -0.1)">
       <use xlink:href="#DejaVuSans-30"/>
      </g>
     </g>
    </g>
    <g id="ytick_2">
     <g id="line2d_8">
      <g>
       <use xlink:href="#m2e0dbb127c" x="172.8" y="550.975015" style="stroke: #000000; stroke-width: 0.8"/>
      </g>
     </g>
     <g id="text_8">
      <!-- 2 -->
      <g transform="translate(159.4375 554.774234) scale(0.1 -0.1)">
       <use xlink:href="#DejaVuSans-32"/>
      </g>
     </g>
    </g>
    <g id="ytick_3">
     <g id="line2d_9">
      <g>
       <use xlink:href="#m2e0dbb127c" x="172.8" y="471.575631" style="stroke: #000000; stroke-width: 0.8"/>
      </g>
     </g>
     <g id="text_9">
      <!-- 4 -->
      <g transform="translate(159.4375 475.37485) scale(0.1 -0.1)">
       <defs>
        <path id="DejaVuSans-34" d="M 2419 4116 
L 825 1625 
L 2419 1625 
L 2419 4116 
z
M 2253 4666 
L 3047 4666 
L 3047 1625 
L 3713 1625 
L 3713 1100 
L 3047 1100 
L 3047 0 
L 2419 0 
L 2419 1100 
L 313 1100 
L 313 1709 
L 2253 4666 
z
" transform="scale(0.015625)"/>
       </defs>
       <use xlink:href="#DejaVuSans-34"/>
      </g>
     </g>
    </g>
    <g id="ytick_4">
     <g id="line2d_10">
      <g>
       <use xlink:href="#m2e0dbb127c" x="172.8" y="392.176246" style="stroke: #000000; stroke-width: 0.8"/>
      </g>
     </g>
     <g id="text_10">
      <!-- 6 -->
      <g transform="translate(159.4375 395.975465) scale(0.1 -0.1)">
       <defs>
        <path id="DejaVuSans-36" d="M 2113 2584 
Q 1688 2584 1439 2293 
Q 1191 2003 1191 1497 
Q 1191 994 1439 701 
Q 1688 409 2113 409 
Q 2538 409 2786 701 
Q 3034 994 3034 1497 
Q 3034 2003 2786 2293 
Q 2538 2584 2113 2584 
z
M 3366 4563 
L 3366 3988 
Q 3128 4100 2886 4159 
Q 2644 4219 2406 4219 
Q 1781 4219 1451 3797 
Q 1122 3375 1075 2522 
Q 1259 2794 1537 2939 
Q 1816 3084 2150 3084 
Q 2853 3084 3261 2657 
Q 3669 2231 3669 1497 
Q 3669 778 3244 343 
Q 2819 -91 2113 -91 
Q 1303 -91 875 529 
Q 447 1150 447 2328 
Q 447 3434 972 4092 
Q 1497 4750 2381 4750 
Q 2619 4750 2861 4703 
Q 3103 4656 3366 4563 
z
" transform="scale(0.015625)"/>
       </defs>
       <use xlink:href="#DejaVuSans-36"/>
      </g>
     </g>
    </g>
    <g id="ytick_5">
     <g id="line2d_11">
      <g>
       <use xlink:href="#m2e0dbb127c" x="172.8" y="312.776862" style="stroke: #000000; stroke-width: 0.8"/>
      </g>
     </g>
     <g id="text_11">
      <!-- 8 -->
      <g transform="translate(159.4375 316.57608) scale(0.1 -0.1)">
       <defs>
        <path id="DejaVuSans-38" d="M 2034 2216 
Q 1584 2216 1326 1975 
Q 1069 1734 1069 1313 
Q 1069 891 1326 650 
Q 1584 409 2034 409 
Q 2484 409 2743 651 
Q 3003 894 3003 1313 
Q 3003 1734 2745 1975 
Q 2488 2216 2034 2216 
z
M 1403 2484 
Q 997 2584 770 2862 
Q 544 3141 544 3541 
Q 544 4100 942 4425 
Q 1341 4750 2034 4750 
Q 2731 4750 3128 4425 
Q 3525 4100 3525 3541 
Q 3525 3141 3298 2862 
Q 3072 2584 2669 2484 
Q 3125 2378 3379 2068 
Q 3634 1759 3634 1313 
Q 3634 634 3220 271 
Q 2806 -91 2034 -91 
Q 1263 -91 848 271 
Q 434 634 434 1313 
Q 434 1759 690 2068 
Q 947 2378 1403 2484 
z
M 1172 3481 
Q 1172 3119 1398 2916 
Q 1625 2713 2034 2713 
Q 2441 2713 2670 2916 
Q 2900 3119 2900 3481 
Q 2900 3844 2670 4047 
Q 2441 4250 2034 4250 
Q 1625 4250 1398 4047 
Q 1172 3844 1172 3481 
z
" transform="scale(0.015625)"/>
       </defs>
       <use xlink:href="#DejaVuSans-38"/>
      </g>
     </g>
    </g>
    <g id="ytick_6">
     <g id="line2d_12">
      <g>
       <use xlink:href="#m2e0dbb127c" x="172.8" y="233.377477" style="stroke: #000000; stroke-width: 0.8"/>
      </g>
     </g>
     <g id="text_12">
      <!-- 10 -->
      <g transform="translate(153.075 237.176696) scale(0.1 -0.1)">
       <use xlink:href="#DejaVuSans-31"/>
       <use xlink:href="#DejaVuSans-30" x="63.623047"/>
      </g>
     </g>
    </g>
    <g id="ytick_7">
     <g id="line2d_13">
      <g>
       <use xlink:href="#m2e0dbb127c" x="172.8" y="153.978092" style="stroke: #000000; stroke-width: 0.8"/>
      </g>
     </g>
     <g id="text_13">
      <!-- 12 -->
      <g transform="translate(153.075 157.777311) scale(0.1 -0.1)">
       <use xlink:href="#DejaVuSans-31"/>
       <use xlink:href="#DejaVuSans-32" x="63.623047"/>
      </g>
     </g>
    </g>
   </g>
   <g id="line2d_14">
    <defs>
     <path id="m3a972137c9" d="M 0 3 
C 0.795609 3 1.55874 2.683901 2.12132 2.12132 
C 2.683901 1.55874 3 0.795609 3 0 
C 3 -0.795609 2.683901 -1.55874 2.12132 -2.12132 
C 1.55874 -2.683901 0.795609 -3 0 -3 
C -0.795609 -3 -1.55874 -2.683901 -2.12132 -2.12132 
C -2.683901 -1.55874 -3 -0.795609 -3 0 
C -3 0.795609 -2.683901 1.55874 -2.12132 2.12132 
C -1.55874 2.683901 -0.795609 3 0 3 
z
" style="stroke: #0000ff"/>
    </defs>
    <g clip-path="url(#pcbed4b187b)">
     <use xlink:href="#m3a972137c9" x="221.498182" y="590.674708" style="fill: #0000ff; stroke: #0000ff"/>
     <use xlink:href="#m3a972137c9" x="221.498182" y="471.575631" style="fill: #0000ff; stroke: #0000ff"/>
     <use xlink:href="#m3a972137c9" x="221.498182" y="471.575631" style="fill: #0000ff; stroke: #0000ff"/>
     <use xlink:href="#m3a972137c9" x="221.498182" y="590.674708" style="fill: #0000ff; stroke: #0000ff"/>
     <use xlink:href="#m3a972137c9" x="221.498182" y="590.674708" style="fill: #0000ff; stroke: #0000ff"/>
     <use xlink:href="#m3a972137c9" x="260.456727" y="590.674708" style="fill: #0000ff; stroke: #0000ff"/>
     <use xlink:href="#m3a972137c9" x="260.456727" y="550.975015" style="fill: #0000ff; stroke: #0000ff"/>
     <use xlink:href="#m3a972137c9" x="260.456727" y="550.975015" style="fill: #0000ff; stroke: #0000ff"/>
     <use xlink:href="#m3a972137c9" x="260.456727" y="471.575631" style="fill: #0000ff; stroke: #0000ff"/>
     <use xlink:href="#m3a972137c9" x="260.456727" y="630.3744" style="fill: #0000ff; stroke: #0000ff"/>
     <use xlink:href="#m3a972137c9" x="299.415273" y="630.3744" style="fill: #0000ff; stroke: #0000ff"/>
     <use xlink:href="#m3a972137c9" x="299.415273" y="471.575631" style="fill: #0000ff; stroke: #0000ff"/>
     <use xlink:href="#m3a972137c9" x="299.415273" y="630.3744" style="fill: #0000ff; stroke: #0000ff"/>
     <use xlink:href="#m3a972137c9" x="299.415273" y="550.975015" style="fill: #0000ff; stroke: #0000ff"/>
     <use xlink:href="#m3a972137c9" x="299.415273" y="550.975015" style="fill: #0000ff; stroke: #0000ff"/>
     <use xlink:href="#m3a972137c9" x="338.373818" y="630.3744" style="fill: #0000ff; stroke: #0000ff"/>
     <use xlink:href="#m3a972137c9" x="338.373818" y="312.776862" style="fill: #0000ff; stroke: #0000ff"/>
     <use xlink:href="#m3a972137c9" x="377.332364" y="630.3744" style="fill: #0000ff; stroke: #0000ff"/>
     <use xlink:href="#m3a972137c9" x="377.332364" y="431.875938" style="fill: #0000ff; stroke: #0000ff"/>
     <use xlink:href="#m3a972137c9" x="377.332364" y="352.476554" style="fill: #0000ff; stroke: #0000ff"/>
     <use xlink:href="#m3a972137c9" x="377.332364" y="630.3744" style="fill: #0000ff; stroke: #0000ff"/>
     <use xlink:href="#m3a972137c9" x="377.332364" y="590.674708" style="fill: #0000ff; stroke: #0000ff"/>
     <use xlink:href="#m3a972137c9" x="416.290909" y="550.975015" style="fill: #0000ff; stroke: #0000ff"/>
     <use xlink:href="#m3a972137c9" x="416.290909" y="630.3744" style="fill: #0000ff; stroke: #0000ff"/>
     <use xlink:href="#m3a972137c9" x="455.249455" y="550.975015" style="fill: #0000ff; stroke: #0000ff"/>
     <use xlink:href="#m3a972137c9" x="455.249455" y="630.3744" style="fill: #0000ff; stroke: #0000ff"/>
     <use xlink:href="#m3a972137c9" x="455.249455" y="630.3744" style="fill: #0000ff; stroke: #0000ff"/>
     <use xlink:href="#m3a972137c9" x="455.249455" y="630.3744" style="fill: #0000ff; stroke: #0000ff"/>
     <use xlink:href="#m3a972137c9" x="455.249455" y="630.3744" style="fill: #0000ff; stroke: #0000ff"/>
     <use xlink:href="#m3a972137c9" x="455.249455" y="630.3744" style="fill: #0000ff; stroke: #0000ff"/>
     <use xlink:href="#m3a972137c9" x="494.208" y="630.3744" style="fill: #0000ff; stroke: #0000ff"/>
     <use xlink:href="#m3a972137c9" x="494.208" y="312.776862" style="fill: #0000ff; stroke: #0000ff"/>
     <use xlink:href="#m3a972137c9" x="494.208" y="312.776862" style="fill: #0000ff; stroke: #0000ff"/>
     <use xlink:href="#m3a972137c9" x="494.208" y="590.674708" style="fill: #0000ff; stroke: #0000ff"/>
     <use xlink:href="#m3a972137c9" x="533.166545" y="431.875938" style="fill: #0000ff; stroke: #0000ff"/>
     <use xlink:href="#m3a972137c9" x="533.166545" y="511.275323" style="fill: #0000ff; stroke: #0000ff"/>
     <use xlink:href="#m3a972137c9" x="533.166545" y="471.575631" style="fill: #0000ff; stroke: #0000ff"/>
     <use xlink:href="#m3a972137c9" x="572.125091" y="630.3744" style="fill: #0000ff; stroke: #0000ff"/>
     <use xlink:href="#m3a972137c9" x="572.125091" y="550.975015" style="fill: #0000ff; stroke: #0000ff"/>
     <use xlink:href="#m3a972137c9" x="572.125091" y="431.875938" style="fill: #0000ff; stroke: #0000ff"/>
     <use xlink:href="#m3a972137c9" x="572.125091" y="590.674708" style="fill: #0000ff; stroke: #0000ff"/>
     <use xlink:href="#m3a972137c9" x="611.083636" y="630.3744" style="fill: #0000ff; stroke: #0000ff"/>
     <use xlink:href="#m3a972137c9" x="611.083636" y="630.3744" style="fill: #0000ff; stroke: #0000ff"/>
     <use xlink:href="#m3a972137c9" x="611.083636" y="114.2784" style="fill: #0000ff; stroke: #0000ff"/>
     <use xlink:href="#m3a972137c9" x="611.083636" y="431.875938" style="fill: #0000ff; stroke: #0000ff"/>
     <use xlink:href="#m3a972137c9" x="611.083636" y="590.674708" style="fill: #0000ff; stroke: #0000ff"/>
     <use xlink:href="#m3a972137c9" x="611.083636" y="590.674708" style="fill: #0000ff; stroke: #0000ff"/>
     <use xlink:href="#m3a972137c9" x="650.042182" y="550.975015" style="fill: #0000ff; stroke: #0000ff"/>
     <use xlink:href="#m3a972137c9" x="650.042182" y="630.3744" style="fill: #0000ff; stroke: #0000ff"/>
     <use xlink:href="#m3a972137c9" x="650.042182" y="630.3744" style="fill: #0000ff; stroke: #0000ff"/>
     <use xlink:href="#m3a972137c9" x="689.000727" y="630.3744" style="fill: #0000ff; stroke: #0000ff"/>
     <use xlink:href="#m3a972137c9" x="689.000727" y="471.575631" style="fill: #0000ff; stroke: #0000ff"/>
     <use xlink:href="#m3a972137c9" x="689.000727" y="630.3744" style="fill: #0000ff; stroke: #0000ff"/>
     <use xlink:href="#m3a972137c9" x="689.000727" y="193.677785" style="fill: #0000ff; stroke: #0000ff"/>
     <use xlink:href="#m3a972137c9" x="689.000727" y="590.674708" style="fill: #0000ff; stroke: #0000ff"/>
     <use xlink:href="#m3a972137c9" x="689.000727" y="471.575631" style="fill: #0000ff; stroke: #0000ff"/>
     <use xlink:href="#m3a972137c9" x="689.000727" y="630.3744" style="fill: #0000ff; stroke: #0000ff"/>
     <use xlink:href="#m3a972137c9" x="689.000727" y="471.575631" style="fill: #0000ff; stroke: #0000ff"/>
     <use xlink:href="#m3a972137c9" x="727.959273" y="550.975015" style="fill: #0000ff; stroke: #0000ff"/>
     <use xlink:href="#m3a972137c9" x="766.917818" y="273.077169" style="fill: #0000ff; stroke: #0000ff"/>
     <use xlink:href="#m3a972137c9" x="766.917818" y="630.3744" style="fill: #0000ff; stroke: #0000ff"/>
     <use xlink:href="#m3a972137c9" x="805.876364" y="630.3744" style="fill: #0000ff; stroke: #0000ff"/>
     <use xlink:href="#m3a972137c9" x="805.876364" y="431.875938" style="fill: #0000ff; stroke: #0000ff"/>
     <use xlink:href="#m3a972137c9" x="805.876364" y="590.674708" style="fill: #0000ff; stroke: #0000ff"/>
     <use xlink:href="#m3a972137c9" x="805.876364" y="630.3744" style="fill: #0000ff; stroke: #0000ff"/>
     <use xlink:href="#m3a972137c9" x="805.876364" y="630.3744" style="fill: #0000ff; stroke: #0000ff"/>
     <use xlink:href="#m3a972137c9" x="805.876364" y="630.3744" style="fill: #0000ff; stroke: #0000ff"/>
     <use xlink:href="#m3a972137c9" x="805.876364" y="511.275323" style="fill: #0000ff; stroke: #0000ff"/>
     <use xlink:href="#m3a972137c9" x="883.793455" y="630.3744" style="fill: #0000ff; stroke: #0000ff"/>
     <use xlink:href="#m3a972137c9" x="883.793455" y="431.875938" style="fill: #0000ff; stroke: #0000ff"/>
     <use xlink:href="#m3a972137c9" x="922.752" y="630.3744" style="fill: #0000ff; stroke: #0000ff"/>
     <use xlink:href="#m3a972137c9" x="922.752" y="630.3744" style="fill: #0000ff; stroke: #0000ff"/>
     <use xlink:href="#m3a972137c9" x="922.752" y="431.875938" style="fill: #0000ff; stroke: #0000ff"/>
     <use xlink:href="#m3a972137c9" x="922.752" y="550.975015" style="fill: #0000ff; stroke: #0000ff"/>
     <use xlink:href="#m3a972137c9" x="922.752" y="590.674708" style="fill: #0000ff; stroke: #0000ff"/>
     <use xlink:href="#m3a972137c9" x="922.752" y="392.176246" style="fill: #0000ff; stroke: #0000ff"/>
     <use xlink:href="#m3a972137c9" x="922.752" y="550.975015" style="fill: #0000ff; stroke: #0000ff"/>
     <use xlink:href="#m3a972137c9" x="922.752" y="392.176246" style="fill: #0000ff; stroke: #0000ff"/>
     <use xlink:href="#m3a972137c9" x="922.752" y="630.3744" style="fill: #0000ff; stroke: #0000ff"/>
     <use xlink:href="#m3a972137c9" x="922.752" y="392.176246" style="fill: #0000ff; stroke: #0000ff"/>
     <use xlink:href="#m3a972137c9" x="922.752" y="630.3744" style="fill: #0000ff; stroke: #0000ff"/>
     <use xlink:href="#m3a972137c9" x="922.752" y="550.975015" style="fill: #0000ff; stroke: #0000ff"/>
     <use xlink:href="#m3a972137c9" x="922.752" y="630.3744" style="fill: #0000ff; stroke: #0000ff"/>
     <use xlink:href="#m3a972137c9" x="961.710545" y="630.3744" style="fill: #0000ff; stroke: #0000ff"/>
     <use xlink:href="#m3a972137c9" x="1039.627636" y="392.176246" style="fill: #0000ff; stroke: #0000ff"/>
     <use xlink:href="#m3a972137c9" x="1039.627636" y="352.476554" style="fill: #0000ff; stroke: #0000ff"/>
     <use xlink:href="#m3a972137c9" x="1039.627636" y="471.575631" style="fill: #0000ff; stroke: #0000ff"/>
     <use xlink:href="#m3a972137c9" x="1039.627636" y="630.3744" style="fill: #0000ff; stroke: #0000ff"/>
     <use xlink:href="#m3a972137c9" x="1078.586182" y="550.975015" style="fill: #0000ff; stroke: #0000ff"/>
     <use xlink:href="#m3a972137c9" x="1078.586182" y="550.975015" style="fill: #0000ff; stroke: #0000ff"/>
     <use xlink:href="#m3a972137c9" x="1078.586182" y="630.3744" style="fill: #0000ff; stroke: #0000ff"/>
     <use xlink:href="#m3a972137c9" x="1078.586182" y="550.975015" style="fill: #0000ff; stroke: #0000ff"/>
     <use xlink:href="#m3a972137c9" x="1078.586182" y="392.176246" style="fill: #0000ff; stroke: #0000ff"/>
     <use xlink:href="#m3a972137c9" x="1078.586182" y="511.275323" style="fill: #0000ff; stroke: #0000ff"/>
     <use xlink:href="#m3a972137c9" x="1078.586182" y="590.674708" style="fill: #0000ff; stroke: #0000ff"/>
     <use xlink:href="#m3a972137c9" x="1078.586182" y="590.674708" style="fill: #0000ff; stroke: #0000ff"/>
     <use xlink:href="#m3a972137c9" x="1195.461818" y="630.3744" style="fill: #0000ff; stroke: #0000ff"/>
    </g>
   </g>
   <g id="patch_157">
    <path d="M 172.8 656.1792 
L 172.8 88.4736 
" style="fill: none; stroke: #000000; stroke-width: 0.8; stroke-linejoin: miter; stroke-linecap: square"/>
   </g>
   <g id="patch_158">
    <path d="M 1244.16 656.1792 
L 1244.16 88.4736 
" style="fill: none; stroke: #000000; stroke-width: 0.8; stroke-linejoin: miter; stroke-linecap: square"/>
   </g>
   <g id="patch_159">
    <path d="M 172.8 656.1792 
L 1244.16 656.1792 
" style="fill: none; stroke: #000000; stroke-width: 0.8; stroke-linejoin: miter; stroke-linecap: square"/>
   </g>
   <g id="patch_160">
    <path d="M 172.8 88.4736 
L 1244.16 88.4736 
" style="fill: none; stroke: #000000; stroke-width: 0.8; stroke-linejoin: miter; stroke-linecap: square"/>
   </g>
  </g>
 </g>
 <defs>
  <clipPath id="pcbed4b187b">
   <rect x="172.8" y="88.4736" width="1071.36" height="567.7056"/>
  </clipPath>
 </defs>
</svg>
